<?xml version="1.0" standalone="no"?>
<!DOCTYPE svg PUBLIC "-//W3C//DTD SVG 20010904//EN"
 "http://www.w3.org/TR/2001/REC-SVG-20010904/DTD/svg10.dtd">
<svg version="1.0" xmlns="http://www.w3.org/2000/svg"
 width="920.000000pt" height="661.000000pt" viewBox="0 0 920.000000 661.000000"
 preserveAspectRatio="xMidYMid meet">

<g transform="translate(0.000000,661.000000) scale(0.100000,-0.100000)"
fill="#000000" stroke="none">
<path d="M4480 6309 c-19 -5 -48 -11 -64 -14 -31 -6 -58 -19 -84 -40 -171
-136 -532 -433 -548 -449 -11 -13 -148 -127 -305 -256 -156 -128 -297 -245
-312 -261 -15 -16 -32 -29 -36 -29 -4 0 -25 -17 -47 -39 -21 -21 -165 -141
-319 -268 -154 -126 -296 -244 -315 -262 -43 -40 -9 -12 -350 -292 -157 -128
-296 -245 -310 -259 -14 -14 -70 -61 -124 -105 -203 -164 -392 -322 -411 -344
-23 -27 -28 -104 -9 -141 24 -46 269 -334 303 -357 47 -32 107 -31 157 3 34
23 151 118 434 352 36 30 72 62 80 71 8 9 168 142 355 296 186 153 348 289
360 301 11 12 160 135 330 274 171 139 321 265 335 279 14 14 159 136 323 270
163 134 297 247 297 252 0 5 6 9 13 9 8 0 22 10 33 21 17 19 158 139 286 243
l47 38 158 -130 c87 -71 169 -142 182 -156 14 -14 30 -26 38 -26 7 0 13 -4 13
-9 0 -5 133 -118 296 -251 163 -134 308 -255 322 -270 15 -15 128 -110 252
-211 260 -212 387 -319 450 -377 25 -23 51 -42 57 -42 7 0 13 -4 13 -9 0 -4
123 -109 273 -231 149 -123 292 -243 317 -266 77 -73 524 -435 548 -445 35
-13 89 -11 121 6 29 14 292 325 317 374 16 30 10 95 -11 127 -12 18 -234 206
-458 386 -16 13 -48 41 -72 63 -25 22 -128 108 -229 190 l-185 150 0 876 -1
876 -22 28 c-42 54 -51 55 -513 55 -457 0 -474 -2 -509 -51 -14 -21 -16 -72
-16 -451 0 -300 -3 -428 -11 -428 -6 0 -50 33 -97 73 -48 40 -150 125 -227
188 -77 64 -154 129 -170 145 -37 36 -493 412 -565 465 -31 23 -62 38 -95 45
-5 1 -30 7 -55 13 -53 12 -190 13 -240 0z"/>
<path d="M4585 5236 c-6 -8 -120 -103 -255 -212 -301 -244 -289 -234 -317
-261 -22 -21 -269 -225 -872 -718 -148 -121 -286 -234 -307 -252 -22 -18 -55
-45 -74 -60 -19 -15 -44 -38 -55 -49 -11 -12 -128 -109 -260 -215 -132 -106
-243 -198 -247 -204 -4 -5 -8 -468 -8 -1027 0 -1010 3 -1098 33 -1131 7 -6 24
-28 38 -47 15 -19 51 -47 81 -63 l55 -27 831 0 832 0 0 800 0 800 535 0 535 0
0 -800 0 -800 838 0 837 0 55 29 c39 21 66 45 95 86 l40 56 3 1063 2 1063 -92
76 c-51 42 -160 130 -243 197 -82 67 -168 138 -190 159 -22 21 -89 77 -150
126 -60 49 -144 116 -185 150 -41 34 -124 101 -185 150 -60 49 -132 109 -160
134 -27 26 -117 100 -199 166 -255 206 -391 318 -401 331 -5 7 -98 83 -205
170 -107 87 -237 192 -287 233 -51 41 -93 78 -93 83 0 13 -14 9 -25 -6z"/>
</g>
</svg>
